<svg width="32" height="32" viewBox="0 0 32 32" fill="none" xmlns="http://www.w3.org/2000/svg">
<circle cx="16" cy="16" r="16" fill="#ECECEC"/>
<path d="M9.80313 15.3835C11.7052 12.6455 13.8206 10.9167 16.4167 10.9167V9.41675C13.0631 9.41675 10.5563 11.6703 8.57123 14.5276L9.80313 15.3835ZM16.4167 10.9167C19.0127 10.9167 21.1281 12.6455 23.0302 15.3835L24.2621 14.5276C22.2771 11.6703 19.7703 9.41675 16.4167 9.41675V10.9167ZM23.0302 16.6167C21.1281 19.3546 19.0127 21.0834 16.4167 21.0834V22.5834C19.7703 22.5834 22.2771 20.3299 24.2621 17.4725L23.0302 16.6167ZM16.4167 21.0834C13.8206 21.0834 11.7052 19.3546 9.80313 16.6167L8.57123 17.4725C10.5563 20.3299 13.0631 22.5834 16.4167 22.5834V21.0834ZM23.0302 15.3835C23.2878 15.7543 23.2878 16.2459 23.0302 16.6167L24.2621 17.4725C24.8772 16.5871 24.8772 15.413 24.2621 14.5276L23.0302 15.3835ZM8.57123 14.5276C7.95615 15.413 7.95615 16.5871 8.57123 17.4725L9.80313 16.6167C9.54551 16.2459 9.54551 15.7543 9.80313 15.3835L8.57123 14.5276Z" fill="#333333"/>
<ellipse cx="16.4166" cy="16" rx="2.5" ry="2.5" stroke="#333333" stroke-width="1.5"/>
</svg>
