<svg width="32" height="32" viewBox="0 0 32 32" fill="none" xmlns="http://www.w3.org/2000/svg">
<circle cx="16" cy="16" r="16" fill="#ECECEC"/>
<path d="M19.302 12.2335C19.6342 12.4809 20.104 12.4123 20.3515 12.0801C20.599 11.7479 20.5303 11.278 20.1982 11.0306L19.302 12.2335ZM10.9687 20.9691C11.3008 21.2166 11.7707 21.1479 12.0182 20.8157C12.2657 20.4836 12.197 20.0137 11.8648 19.7662L10.9687 20.9691ZM8.35392 14.9553L7.73797 14.5274L8.35392 14.9553ZM8.35375 17.0441L7.7378 17.472L8.35375 17.0441ZM8.96988 15.3832C10.8719 12.6453 12.9874 10.9165 15.5834 10.9165V9.4165C12.2298 9.4165 9.72302 11.67 7.73797 14.5274L8.96988 15.3832ZM15.5834 10.9165C16.9502 10.9165 18.1714 11.3912 19.302 12.2335L20.1982 11.0306C18.8578 10.032 17.3295 9.4165 15.5834 9.4165V10.9165ZM11.8648 19.7662C10.8261 18.9924 9.86935 17.9112 8.96971 16.6162L7.7378 17.472C8.69161 18.845 9.75541 20.0652 10.9687 20.9691L11.8648 19.7662ZM7.73797 14.5274C7.12297 15.4127 7.12266 16.5865 7.7378 17.472L8.96971 16.6162C8.71217 16.2455 8.71218 15.7542 8.96988 15.3832L7.73797 14.5274Z" fill="#333333"/>
<path d="M13.9847 21.0863C13.5721 21.0488 13.2073 21.3528 13.1698 21.7653C13.1323 22.1779 13.4363 22.5427 13.8488 22.5802L13.9847 21.0863ZM22.2808 12.898C21.9484 12.6509 21.4786 12.7201 21.2315 13.0525C20.9844 13.3849 21.0536 13.8547 21.386 14.1018L22.2808 12.898ZM22.6115 16.5931C20.5978 19.3506 17.7237 21.4262 13.9847 21.0863L13.8488 22.5802C18.3115 22.9859 21.6376 20.4702 23.8229 17.4777L22.6115 16.5931ZM21.8334 13.4999C21.386 14.1018 21.3858 14.1017 21.3857 14.1016C21.3857 14.1016 21.3855 14.1015 21.3854 14.1014C21.3853 14.1013 21.3851 14.1012 21.3849 14.1011C21.3846 14.1008 21.3844 14.1006 21.3841 14.1004C21.3836 14.1001 21.3833 14.0998 21.3831 14.0997C21.3827 14.0994 21.3828 14.0995 21.3835 14.1C21.385 14.1011 21.3886 14.1039 21.3943 14.1084C21.4057 14.1175 21.4255 14.1335 21.453 14.1568C21.5079 14.2033 21.5935 14.2789 21.7036 14.3859C21.9238 14.5999 22.2423 14.9397 22.611 15.4245L23.805 14.5165C23.3886 13.969 23.0198 13.5734 22.749 13.3102C22.6136 13.1786 22.5027 13.0801 22.4226 13.0123C22.3825 12.9783 22.3502 12.952 22.3263 12.9331C22.3143 12.9236 22.3045 12.916 22.2969 12.9102C22.2931 12.9072 22.2899 12.9048 22.2872 12.9028C22.2858 12.9017 22.2846 12.9008 22.2836 12.9C22.2831 12.8996 22.2826 12.8993 22.2821 12.8989C22.2819 12.8988 22.2817 12.8986 22.2814 12.8984C22.2813 12.8984 22.2812 12.8983 22.2811 12.8982C22.281 12.8981 22.2808 12.898 21.8334 13.4999ZM23.8229 17.4777C24.464 16.5998 24.4743 15.3966 23.805 14.5165L22.611 15.4245C22.8676 15.7619 22.8725 16.2357 22.6115 16.5931L23.8229 17.4777Z" fill="#333333"/>
<path d="M14.2319 17.7678C13.9997 17.5356 13.8156 17.26 13.6899 16.9567C13.5643 16.6534 13.4996 16.3283 13.4996 16C13.4996 15.6717 13.5643 15.3466 13.6899 15.0433C13.8156 14.74 13.9997 14.4644 14.2319 14.2322C14.464 14.0001 14.7396 13.8159 15.0429 13.6903C15.3462 13.5647 15.6713 13.5 15.9996 13.5C16.3279 13.5 16.653 13.5647 16.9563 13.6903C17.2596 13.8159 17.5352 14.0001 17.7674 14.2322L15.9996 16L14.2319 17.7678Z" stroke="#333333" stroke-width="1.5"/>
<line x1="21.8335" y1="10.3939" x2="10.3942" y2="21.8333" stroke="#333333" stroke-width="1.5" stroke-linecap="round"/>
<path d="M19.5511 16.48C19.5232 16.0667 19.1655 15.7544 18.7522 15.7823C18.339 15.8102 18.0266 16.1679 18.0545 16.5812L19.5511 16.48ZM16.67 17.9657C16.2567 17.9378 15.899 18.2502 15.8711 18.6634C15.8432 19.0767 16.1555 19.4344 16.5688 19.4623L16.67 17.9657ZM18.8028 16.5306C18.0545 16.5812 18.0545 16.5808 18.0545 16.5805C18.0545 16.5804 18.0544 16.58 18.0544 16.5798C18.0544 16.5793 18.0544 16.5789 18.0543 16.5784C18.0543 16.5775 18.0542 16.5767 18.0542 16.5759C18.0541 16.5743 18.054 16.5729 18.0539 16.5716C18.0538 16.5691 18.0537 16.5673 18.0537 16.5661C18.0536 16.5637 18.0537 16.5638 18.0537 16.5663C18.0537 16.5712 18.0535 16.5853 18.0518 16.6071C18.0485 16.651 18.0393 16.7238 18.0145 16.8151C17.9657 16.9945 17.8556 17.2505 17.5974 17.5086L18.6581 18.5693C19.1277 18.0997 19.3552 17.6014 19.462 17.2086C19.5149 17.0138 19.538 16.846 19.5475 16.7208C19.5523 16.658 19.5537 16.6054 19.5537 16.5649C19.5536 16.5446 19.5533 16.5272 19.5528 16.513C19.5525 16.5059 19.5522 16.4996 19.5519 16.4941C19.5518 16.4913 19.5517 16.4888 19.5515 16.4864C19.5514 16.4853 19.5514 16.4841 19.5513 16.4831C19.5513 16.4825 19.5512 16.482 19.5512 16.4815C19.5512 16.4812 19.5512 16.4809 19.5512 16.4807C19.5511 16.4804 19.5511 16.48 18.8028 16.5306ZM17.5974 17.5086C17.3393 17.7668 17.0833 17.8769 16.9039 17.9257C16.8126 17.9505 16.7398 17.9597 16.6959 17.963C16.6741 17.9647 16.66 17.9649 16.6551 17.9649C16.6526 17.9649 16.6525 17.9648 16.6549 17.9649C16.6561 17.9649 16.6579 17.965 16.6604 17.9651C16.6617 17.9652 16.6631 17.9653 16.6647 17.9654C16.6655 17.9654 16.6663 17.9655 16.6672 17.9655C16.6677 17.9656 16.6681 17.9656 16.6686 17.9656C16.6688 17.9656 16.6692 17.9657 16.6693 17.9657C16.6696 17.9657 16.67 17.9657 16.6194 18.714C16.5688 19.4623 16.5692 19.4623 16.5696 19.4624C16.5697 19.4624 16.5701 19.4624 16.5703 19.4624C16.5708 19.4624 16.5713 19.4625 16.5719 19.4625C16.5729 19.4626 16.5741 19.4626 16.5752 19.4627C16.5776 19.4629 16.5801 19.463 16.5829 19.4631C16.5884 19.4634 16.5947 19.4637 16.6018 19.464C16.616 19.4645 16.6334 19.4648 16.6537 19.4649C16.6942 19.4649 16.7468 19.4635 16.8096 19.4587C16.9348 19.4492 17.1026 19.4261 17.2974 19.3732C17.6902 19.2664 18.1885 19.0389 18.6581 18.5693L17.5974 17.5086Z" fill="#333333"/>
</svg>
